<svg width="20" height="20" viewBox="0 0 20 20" fill="none" xmlns="http://www.w3.org/2000/svg">
<path d="M2.11393 15.2082C2.45939 15.2082 2.74265 15.2942 2.95378 15.471C3.16004 15.6479 3.26539 15.8903 3.26546 16.2035C3.26546 16.5976 3.07393 16.8606 2.69499 16.992C2.89642 17.0577 3.05493 17.1537 3.16048 17.285C3.2756 17.4214 3.33297 17.5985 3.33301 17.8107C3.33301 18.1442 3.22247 18.4171 3.00179 18.6294C2.77151 18.8467 2.4694 18.9581 2.09521 18.9582C1.74013 18.9582 1.45177 18.8621 1.23584 18.6701C0.996005 18.4578 0.861793 18.1441 0.833008 17.7399H1.4043C1.41389 17.9724 1.48071 18.1547 1.61507 18.2811C1.73503 18.3973 1.89361 18.4577 2.09033 18.4577C2.3062 18.4577 2.47911 18.3919 2.60384 18.2656C2.71409 18.1494 2.77148 18.0077 2.77148 17.8359C2.77143 17.6289 2.70919 17.477 2.59408 17.381C2.47894 17.2801 2.31091 17.2346 2.09033 17.2345H1.85026V16.7902H2.09033C2.29181 16.7902 2.4454 16.7444 2.55094 16.6535C2.65165 16.5625 2.70475 16.4259 2.70475 16.249C2.70471 16.0725 2.65653 15.9412 2.56559 15.8503C2.46482 15.7593 2.31555 15.7135 2.11881 15.7135C1.91737 15.7136 1.76365 15.7645 1.65332 15.8706C1.53834 15.9767 1.47149 16.1385 1.45231 16.3556H0.900553C0.929344 15.9918 1.05353 15.7082 1.28385 15.506C1.49972 15.304 1.77819 15.2082 2.11393 15.2082Z" fill="#404942"/>
<path d="M18.333 16.4582C18.7932 16.4582 19.1663 16.8313 19.1663 17.2915C19.1663 17.7517 18.7932 18.1248 18.333 18.1248H5.83301C5.37277 18.1248 4.99967 17.7517 4.99967 17.2915C4.99967 16.8313 5.37277 16.4582 5.83301 16.4582H18.333Z" fill="#404942"/>
<path d="M2.13835 8.33317C2.48468 8.33319 2.77103 8.43639 2.99691 8.64242C3.21764 8.84843 3.32812 9.11119 3.32812 9.44075C3.3281 9.76008 3.20746 10.0488 2.97656 10.3115C2.83597 10.466 2.58482 10.662 2.23356 10.904C1.86732 11.1511 1.6466 11.3672 1.56624 11.5526H3.33301V12.0832H0.833008C0.833008 11.7071 0.948489 11.3823 1.18945 11.1042C1.32004 10.9496 1.59652 10.723 2.01302 10.4295C2.24369 10.2649 2.40418 10.1259 2.50456 10.0177C2.66009 9.83756 2.74046 9.64178 2.74056 9.43587C2.74056 9.23505 2.68546 9.08534 2.58512 8.98747C2.4797 8.8896 2.32382 8.84342 2.118 8.84342C1.89722 8.84346 1.73119 8.92009 1.62077 9.07454C1.51036 9.21873 1.45017 9.44051 1.4401 9.72884H0.853353C0.85842 9.31706 0.973427 8.98749 1.2041 8.73519C1.44005 8.46733 1.7518 8.33317 2.13835 8.33317Z" fill="#404942"/>
<path d="M18.333 9.37484C18.7932 9.37484 19.1663 9.74793 19.1663 10.2082C19.1663 10.6684 18.7932 11.0415 18.333 11.0415H5.83301C5.37277 11.0415 4.99967 10.6684 4.99967 10.2082C4.99967 9.74793 5.37277 9.37484 5.83301 9.37484H18.333Z" fill="#404942"/>
<path d="M2.49967 4.7915H1.97721V1.78206C1.78529 1.98683 1.54423 2.13883 1.24967 2.23861V1.62988C1.39253 1.58787 1.54469 1.51438 1.7054 1.40934C1.86601 1.29386 1.99951 1.17272 2.10661 1.0415H2.49967V4.7915Z" fill="#404942"/>
<path d="M18.333 2.2915C18.7932 2.2915 19.1663 2.6646 19.1663 3.12484C19.1663 3.58507 18.7932 3.95817 18.333 3.95817H5.83301C5.37277 3.95817 4.99967 3.58507 4.99967 3.12484C4.99967 2.6646 5.37277 2.2915 5.83301 2.2915H18.333Z" fill="#404942"/>
</svg>
